<?xml version="1.0" ?><svg id="Layer_1" style="enable-background:new 0 0 100 100;" version="1.1" viewBox="0 0 100 100" xml:space="preserve" xmlns="http://www.w3.org/2000/svg" xmlns:xlink="http://www.w3.org/1999/xlink"><path class="st0" d="M77.2,27.2c-2.6,0-5.1,0.4-7.5,1.3c-5.2-4.8-12.1-7.7-19.7-7.7c-7.6,0-14.5,2.9-19.7,7.7  c-2.3-0.8-4.9-1.3-7.5-1.3C10.2,27.2,0,37.4,0,50s10.2,22.8,22.8,22.8c2.6,0,5.1-0.5,7.5-1.3c5.2,4.8,12.1,7.7,19.7,7.7  c7.6,0,14.5-2.9,19.7-7.7c2.3,0.8,4.9,1.3,7.5,1.3C89.8,72.8,100,62.6,100,50S89.8,27.2,77.2,27.2z M77.2,71.8  c-2.3,0-4.6-0.4-6.7-1.1l-1-0.4l-0.8,0.8c-5,4.4-11.5,7.1-18.7,7.1c-7.2,0-13.7-2.7-18.7-7.1l-0.8-0.7l-1.1,0.4  c-2.1,0.7-4.3,1-6.7,1C10.8,71.8,1,62,1,50s9.8-21.8,21.8-21.8c2.3,0,4.6,0.4,6.7,1.1l1,0.4l0.8-0.7c5-4.4,11.5-7.1,18.7-7.1  c7.2,0,13.7,2.7,18.7,7.1l0.8,0.8l1-0.4c2.1-0.7,4.3-1.1,6.7-1.1C89.2,28.2,99,38,99,50S89.2,71.8,77.2,71.8z"/></svg>