<?xml version="1.0" ?><svg id="Layer_1" style="enable-background:new 0 0 100 100;" version="1.1" viewBox="0 0 100 100" xml:space="preserve" xmlns="http://www.w3.org/2000/svg" xmlns:xlink="http://www.w3.org/1999/xlink"><path d="M99.5,49.5H75.8c-0.3-13.8-11.6-24.9-25.4-24.9C40.8,24.6,32.3,30,28,38H0.5c-0.6,0-0.6,1,0,1h27.1  c-1.5,3.2-2.4,6.7-2.5,10.5H12.6c-0.7,0-0.8,1,0,1H25c0.1,3.9,1,7.6,2.7,10.9H0.5c-0.6,0-0.7,1,0,1h27.8c4.4,7.8,12.7,13,22.2,13  c9.5,0,17.8-5.3,22.2-13h13.8c0.8,0,0.8-1,0-1H73.1c1.7-3.3,2.6-7,2.7-10.9h23.6C100.2,50.5,100.2,49.5,99.5,49.5z M28.7,39h12.9  c0.7,0,0.8-1,0-1H29.2c4.2-7.4,12.1-12.4,21.2-12.4c13.3,0,24.1,10.7,24.4,23.9H26C26.1,45.7,27,42.2,28.7,39z M50.4,74.4  c-8.9,0-16.8-4.8-21-12h42.1C67.2,69.6,59.4,74.4,50.4,74.4z M72,61.4H28.8c-1.7-3.3-2.7-7-2.8-10.9h48.8  C74.8,54.4,73.7,58.1,72,61.4z"/></svg>