<?xml version="1.0" ?><svg id="Layer_1" style="enable-background:new 0 0 100 100;" version="1.1" viewBox="0 0 100 100" xml:space="preserve" xmlns="http://www.w3.org/2000/svg" xmlns:xlink="http://www.w3.org/1999/xlink"><style type="text/css">
	.st0{fill:#231F20;}
</style><path d="M99.2,60.9H0.5c-0.7,0-0.7,1,0,1h98.7C100.2,61.9,100.2,60.9,99.2,60.9z"/><path d="M99.2,72.6H0.5c-0.7,0-0.7,1,0,1h98.7C100.2,73.6,100.2,72.6,99.2,72.6z"/><path d="M99.3,84.3H0.5c-0.7,0-0.7,1,0,1h98.7C100.3,85.3,100.2,84.3,99.3,84.3z"/><path class="st0" d="M81.8,40.2l-1.2,0.4c-2.9,0.9-5.9,1.4-9.1,1.4c-16.8,0-30.5-13.7-30.5-30.5c0-3.6,0.7-7.1,1.8-10.4L43.4,0  l-1.2,0.4c-12.5,4.2-21.6,16-21.6,29.9c0,6.7,2.1,12.9,5.7,18.1c0,0,0.1,0.1,0.1,0.1c0.6,0.8,1.4,0.3,0.9-0.4  c-3.6-5-5.8-11.2-5.8-17.8c0-13.2,8.4-24.4,20.2-28.7c-1,3.1-1.6,6.5-1.6,10C40.1,28.9,54.2,43,71.6,43c3,0,5.9-0.4,8.6-1.2  c-0.9,2.2-2.1,4.3-3.5,6.2c-0.4,0.6,0.4,1.1,0.9,0.5c0,0,0.1-0.1,0.1-0.1c1.5-2.1,2.8-4.5,3.7-6.9L81.8,40.2z"/></svg>