<?xml version="1.0" ?><svg id="Layer_1" style="enable-background:new 0 0 100 100;" version="1.1" viewBox="0 0 100 100" xml:space="preserve" xmlns="http://www.w3.org/2000/svg" xmlns:xlink="http://www.w3.org/1999/xlink"><path d="M13.8,42.6H0.5c-0.7,0-0.7,1,0,1h13.2C14.5,43.6,14.5,42.6,13.8,42.6z"/><path d="M85.8,43.8H72.5c-0.7,0-0.7,1,0,1h13.2C86.5,44.8,86.5,43.8,85.8,43.8z"/><path d="M66.3,25.3l9.4-9.4c0.5-0.5-0.2-1.2-0.7-0.7l-9.3,9.3C65.1,25.1,65.8,25.8,66.3,25.3z"/><path d="M20.1,25.3c0.5,0.5,1.2-0.2,0.7-0.7l-9.3-9.3c-0.5-0.5-1.2,0.2-0.7,0.7L20.1,25.3z"/><path d="M43.7,14.9V1.7c0-0.7-1-0.7-1,0v13.2C42.7,15.6,43.7,15.6,43.7,14.9z"/><path d="M77.2,46.8c-2.6,0-5.1,0.4-7.5,1.3c-1.4-1.3-2.9-2.4-4.5-3.4c0-0.2,0-0.4,0-0.5C65.2,31.9,55.3,22,43,22  c-12.2,0-22.2,10-22.2,22.2c0,0.9,0.1,1.8,0.2,2.8C9.3,47.8,0,57.7,0,69.6c0,12.6,10.2,22.8,22.8,22.8c2.6,0,5.1-0.5,7.5-1.3  c5.2,4.8,12.1,7.7,19.7,7.7c7.6,0,14.5-2.9,19.7-7.7c2.3,0.8,4.9,1.3,7.5,1.3c12.6,0,22.8-10.2,22.8-22.8S89.8,46.8,77.2,46.8z   M21.8,44.2C21.8,32.5,31.3,23,43,23c11.7,0,21.2,9.5,21.2,21.2c-4.2-2.4-9.1-3.7-14.2-3.7c-7.6,0-14.5,2.9-19.7,7.7  c-2.3-0.8-4.9-1.3-7.5-1.3c-0.3,0-0.5,0-0.8,0C21.9,46,21.8,45.1,21.8,44.2z M77.2,91.4c-2.3,0-4.6-0.4-6.7-1.1l-1-0.4l-0.8,0.8  c-5,4.4-11.5,7.1-18.7,7.1c-7.2,0-13.7-2.7-18.7-7.1L30.5,90l-1.1,0.4c-2.1,0.7-4.3,1-6.7,1C10.8,91.4,1,81.6,1,69.6  s9.8-21.8,21.8-21.8c2.3,0,4.6,0.4,6.7,1.1l1,0.4l0.8-0.7c5-4.4,11.5-7.1,18.7-7.1c7.2,0,13.7,2.7,18.7,7.1l0.8,0.8l1-0.4  c2.1-0.7,4.3-1.1,6.7-1.1c12,0,21.8,9.8,21.8,21.8S89.2,91.4,77.2,91.4z"/></svg>