<?xml version="1.0" ?><svg id="Layer_1" style="enable-background:new 0 0 100 100;" version="1.1" viewBox="0 0 100 100" xml:space="preserve" xmlns="http://www.w3.org/2000/svg" xmlns:xlink="http://www.w3.org/1999/xlink"><path class="st0" d="M50,24.8c-13.8,0-25.1,11.2-25.1,25.1c0,13.8,11.2,25.1,25.1,25.1c13.8,0,25.1-11.2,25.1-25.1  C75.1,36,63.8,24.8,50,24.8z M50,73.9c-13.3,0-24-10.8-24-24s10.8-24,24-24s24,10.8,24,24S63.3,73.9,50,73.9z"/><path class="st0" d="M13.7,49.3H0.5c-0.7,0-0.7,1,0,1h13.2C14.4,50.3,14.5,49.3,13.7,49.3z"/><path class="st0" d="M99.5,49.3H86.2c-0.7,0-0.7,1,0,1h13.2C100.2,50.3,100.2,49.3,99.5,49.3z"/><path class="st0" d="M75.9,24.7l9.4-9.4c0.5-0.5-0.2-1.2-0.7-0.7L75.2,24C74.7,24.5,75.4,25.2,75.9,24.7z"/><path class="st0" d="M24.1,24.7c0.5,0.5,1.2-0.2,0.7-0.7l-9.3-9.3c-0.5-0.5-1.2,0.2-0.7,0.7L24.1,24.7z"/><path class="st0" d="M24,75.3l-9.3,9.3c-0.5,0.5,0.2,1.2,0.7,0.7l9.4-9.4C25.2,75.5,24.5,74.8,24,75.3z"/><path class="st0" d="M76,75.3c-0.5-0.5-1.2,0.2-0.7,0.7l9.4,9.4c0.5,0.5,1.2-0.2,0.7-0.7L76,75.3z"/><path class="st0" d="M49.5,86.2v13.2c0,0.7,1,0.7,1,0V86.2C50.5,85.5,49.5,85.5,49.5,86.2z"/><path class="st0" d="M50.5,13.8V0.6c0-0.7-1-0.7-1,0v13.2C49.5,14.5,50.5,14.5,50.5,13.8z"/></svg>