<?xml version="1.0" ?><svg id="Layer_1" style="enable-background:new 0 0 100 100;" version="1.1" viewBox="0 0 100 100" xml:space="preserve" xmlns="http://www.w3.org/2000/svg" xmlns:xlink="http://www.w3.org/1999/xlink"><path d="M93,74.4l-14.7-8.5L93,57.6c0.6-0.4,0.1-1.2-0.5-0.9l-15.2,8.6l-11-6.4V41.2l11.1-6.5l15.1,8.5c0.7,0.4,1.1-0.5,0.5-0.9  l-14.6-8.2l14.5-8.4c0.6-0.4,0.1-1.2-0.5-0.9l-14.6,8.5V16.5c0-0.8-1-0.8-1,0v17.4l-11,6.4l-15.3-8.8V18.9l15.1-9.4  C66.3,9,65.8,8.2,65,8.7l-14.5,9V0.5c0-0.7-1-0.6-1,0v17.3L34.9,8.7c-0.8-0.5-1.3,0.4-0.5,0.9l15.1,9.4v12.5l-15.3,8.8l-11-6.3V16.5  c0-0.7-1-0.7-1,0v16.8L7.5,24.8c-0.7-0.4-1.2,0.5-0.5,0.9l14.6,8.5L7,42.4c-0.5,0.3-0.1,1.2,0.5,0.9l15.1-8.5l11.1,6.5V59l-11,6.3  L7.5,56.8c-0.6-0.4-1.1,0.6-0.5,0.9l14.7,8.3L7,74.4c-0.7,0.4-0.2,1.3,0.5,0.9l14.7-8.6v16.8c0,0.8,1,0.8,1,0V66.2l11.1-6.5  l15.2,8.8V82l-15.1,9.4c-0.6,0.3-0.1,1.2,0.5,0.8l14.6-9.1v16.2c0,0.7,1,0.7,1,0V83.1l14.6,9.1c0.6,0.3,1.1-0.5,0.5-0.8L50.5,82  V68.5l15.2-8.8l11.1,6.5v17.3c0,0.8,1,0.8,1,0V66.7l14.7,8.6C93.2,75.7,93.7,74.8,93,74.4z M65.3,58.8L50,67.7l-15.3-8.8V41.2  L50,32.3l15.3,8.8V58.8z"/></svg>