<?xml version="1.0" ?><svg id="Layer_1" style="enable-background:new 0 0 100 100;" version="1.1" viewBox="0 0 100 100" xml:space="preserve" xmlns="http://www.w3.org/2000/svg" xmlns:xlink="http://www.w3.org/1999/xlink"><path d="M100.2,32.1c0-10.1-8.2-18.2-18.2-18.2c-2.1,0-4,0.4-5.9,1c-4.1-3.7-9.6-6-15.6-6c-6,0-11.5,2.3-15.6,6.1  c-1.9-0.7-3.9-1.1-6.1-1.1c-8.4,0-15.4,5.7-17.5,13.4C9.4,28,0,37.9,0,50c0,12.6,10.2,22.8,22.8,22.8c2.6,0,5.1-0.5,7.5-1.3  c5.2,4.8,12.1,7.7,19.7,7.7c7.6,0,14.5-2.9,19.7-7.7c2.3,0.8,4.9,1.3,7.5,1.3C89.8,72.8,100,62.6,100,50c0-3.3-0.7-6.4-2-9.2  C99.4,38.2,100.2,35.3,100.2,32.1z M38.9,14.9c1.8,0,3.6,0.3,5.3,0.8l1,0.4l0.8-0.8c3.9-3.4,9-5.5,14.6-5.5c5.5,0,10.6,2,14.5,5.4  l0.8,0.8l1-0.4c1.6-0.5,3.3-0.8,5-0.8c9.5,0,17.2,7.7,17.2,17.2c0,2.7-0.6,5.2-1.7,7.5C93.7,32.3,86,27.2,77.2,27.2  c-2.6,0-5.1,0.4-7.5,1.3c-5.2-4.8-12.1-7.7-19.7-7.7c-7.6,0-14.5,2.9-19.7,7.7c-2.3-0.8-4.9-1.3-7.5-1.3c-0.1,0-0.3,0-0.4,0  C24.5,20.1,31.1,14.9,38.9,14.9z M77.2,71.8c-2.3,0-4.6-0.4-6.7-1.1l-1-0.4l-0.8,0.8c-5,4.4-11.5,7.1-18.7,7.1  c-7.2,0-13.7-2.7-18.7-7.1l-0.8-0.7l-1.1,0.4c-2.1,0.7-4.3,1-6.7,1C10.8,71.8,1,62,1,50s9.8-21.8,21.8-21.8c2.3,0,4.6,0.4,6.7,1.1  l1,0.4l0.8-0.7c5-4.4,11.5-7.1,18.7-7.1c7.2,0,13.7,2.7,18.7,7.1l0.8,0.8l1-0.4c2.1-0.7,4.3-1.1,6.7-1.1C89.2,28.2,99,38,99,50  S89.2,71.8,77.2,71.8z"/></svg>