<?xml version="1.0" ?><svg id="Layer_1" style="enable-background:new 0 0 100 100;" version="1.1" viewBox="0 0 100 100" xml:space="preserve" xmlns="http://www.w3.org/2000/svg" xmlns:xlink="http://www.w3.org/1999/xlink"><path d="M88.8,47.2c2-2,3.6-4.4,4.8-7l0.5-1.1l-1.2,0.3c-1,0.2-2,0.4-3,0.5c-6.6,0.7-13.1-1-18.2-4.8c-5.1-3.8-8.4-9.4-9-15.5  c-0.6-5.2,0.7-10.2,3.4-14.5L66.9,4l-1.4,0.2C53.7,6.5,44.8,16.9,44.8,29.3c0,3,0.5,5.8,1.5,8.5c-6.1,0.8-11.6,3.5-16,7.5  c-2.3-0.8-4.9-1.3-7.5-1.3C10.2,44,0,54.3,0,66.8s10.2,22.8,22.8,22.8c2.6,0,5.1-0.5,7.5-1.3C35.5,93.1,42.4,96,50,96  c7.6,0,14.5-2.9,19.7-7.7c2.3,0.8,4.9,1.3,7.5,1.3c12.6,0,22.8-10.2,22.8-22.8C100,58.5,95.5,51.2,88.8,47.2z M45.8,29.3  c0-11.6,8.1-21.4,19-24c-2.5,4.2-3.7,9.2-3.1,14.3c0.7,6.4,4.1,12.2,9.4,16.2c4.5,3.4,10.1,5.2,15.8,5.2c1,0,2.1-0.1,3.1-0.2  c0.8-0.1,1.6-0.2,2.3-0.4c-1.2,2.3-2.7,4.4-4.5,6.2C84.7,45,81.1,44,77.2,44c-2.6,0-5.1,0.4-7.5,1.3c-5.2-4.8-12.1-7.7-19.7-7.7  c-0.9,0-1.9,0-2.8,0.1C46.3,35.1,45.8,32.3,45.8,29.3z M77.2,88.6c-2.3,0-4.6-0.4-6.7-1.1l-1-0.4l-0.8,0.8C63.7,92.3,57.2,95,50,95  c-7.2,0-13.7-2.7-18.7-7.1l-0.8-0.7l-1.1,0.4c-2.1,0.7-4.3,1-6.7,1C10.8,88.6,1,78.8,1,66.8S10.8,45,22.8,45c2.3,0,4.6,0.4,6.7,1.1  l1,0.4l0.8-0.7c5-4.4,11.5-7.1,18.7-7.1c7.2,0,13.7,2.7,18.7,7.1l0.8,0.8l1-0.4c2.1-0.7,4.3-1.1,6.7-1.1c12,0,21.8,9.8,21.8,21.8  S89.2,88.6,77.2,88.6z"/></svg>