<?xml version="1.0" ?><!DOCTYPE svg  PUBLIC '-//W3C//DTD SVG 1.1//EN'  'http://www.w3.org/Graphics/SVG/1.1/DTD/svg11.dtd'><svg enable-background="new 0 0 64 64" height="64px" id="Layer_1" version="1.1" viewBox="0 0 64 64" width="64px" xml:space="preserve" xmlns="http://www.w3.org/2000/svg" xmlns:xlink="http://www.w3.org/1999/xlink"><g><line fill="none" stroke="#231F20" stroke-linecap="round" stroke-linejoin="round" stroke-miterlimit="10" stroke-width="2" x1="25.454" x2="36.627" y1="42.649" y2="42.649"/><g><path d="    M46.896,42.649h7.831c4.627,0,8.378-3.348,8.378-7.479c0-3.736-3.067-6.833-7.073-7.391l0,0c0-6.532-5.74-12.579-12.101-12.579    c-0.203,0,0.201-0.012,0,0c-3.368,0.181-6.353,1.847-8.346,4.37" fill="none" stroke="#231F20" stroke-linecap="round" stroke-linejoin="round" stroke-miterlimit="10" stroke-width="2"/><path d="    M43.932,15.202C43.174,7.24,36.102,1,27.491,1c-9.118,0-16.508,6.993-16.508,15.62c0,0.837,0.07,1.66,0.204,2.458l0,0    C5.453,19.755,1,24.757,1,30.827c0,6.527,5.156,11.822,11.515,11.822h1.796" fill="none" stroke="#231F20" stroke-linecap="round" stroke-linejoin="round" stroke-miterlimit="10" stroke-width="2"/></g><g><line fill="none" stroke="#231F20" stroke-linecap="round" stroke-linejoin="round" stroke-miterlimit="10" stroke-width="2" x1="22.076" x2="21.105" y1="56.025" y2="58.367"/><line fill="none" stroke="#231F20" stroke-linecap="round" stroke-linejoin="round" stroke-miterlimit="10" stroke-width="2" x1="16.963" x2="14.689" y1="50.691" y2="56.182"/><line fill="none" stroke="#231F20" stroke-linecap="round" stroke-linejoin="round" stroke-miterlimit="10" stroke-width="2" x1="27.51" x2="24.882" y1="42.904" y2="49.251"/><line fill="none" stroke="#231F20" stroke-linecap="round" stroke-linejoin="round" stroke-miterlimit="10" stroke-width="2" x1="20.176" x2="19.165" y1="42.936" y2="45.376"/><line fill="none" stroke="#231F20" stroke-linecap="round" stroke-linejoin="round" stroke-miterlimit="10" stroke-width="2" x1="32.269" x2="29.995" y1="49.093" y2="54.584"/><line fill="none" stroke="#231F20" stroke-linecap="round" stroke-linejoin="round" stroke-miterlimit="10" stroke-width="2" x1="37.381" x2="35.751" y1="54.428" y2="58.36"/><line fill="none" stroke="#231F20" stroke-linecap="round" stroke-linejoin="round" stroke-miterlimit="10" stroke-width="2" x1="42.141" x2="40.091" y1="42.936" y2="47.885"/></g></g></svg>